<?xml version="1.0" encoding="UTF-8"?>
<!DOCTYPE svg PUBLIC "-//W3C//DTD SVG 1.1//EN" "http://www.w3.org/Graphics/SVG/1.1/DTD/svg11.dtd">
<svg xmlns="http://www.w3.org/2000/svg" version="1.1" width="199px" height="87px" style="shape-rendering:geometricPrecision; text-rendering:geometricPrecision; image-rendering:optimizeQuality; fill-rule:evenodd; clip-rule:evenodd" xmlns:xlink="http://www.w3.org/1999/xlink">
<g><path style="opacity:0.974" fill="#000000" d="M 36.5,68.5 C 36.5,74.5 36.5,80.5 36.5,86.5C 29.1667,86.5 21.8333,86.5 14.5,86.5C 14.5,57.8333 14.5,29.1667 14.5,0.5C 21.5,0.5 28.5,0.5 35.5,0.5C 35.1692,23.3395 35.5025,46.0061 36.5,68.5 Z"/></g>
<g><path style="opacity:0.997" fill="#00f946" d="M 131.5,25.5 C 131.5,26.8333 131.5,28.1667 131.5,29.5C 131.5,42.5 131.5,55.5 131.5,68.5C 131.5,74.5 131.5,80.5 131.5,86.5C 124.5,86.5 117.5,86.5 110.5,86.5C 110.667,63.4976 110.5,40.4976 110,17.5C 108.872,19.3453 108.372,21.3453 108.5,23.5C 102.632,44.6372 96.2989,65.6372 89.5,86.5C 84.1667,86.5 78.8333,86.5 73.5,86.5C 72.4565,81.6452 71.1231,76.9785 69.5,72.5C 69.5674,71.0413 69.2341,69.7079 68.5,68.5C 63.9638,53.5581 59.6304,38.5581 55.5,23.5C 55.628,21.3453 55.128,19.3453 54,17.5C 53.5001,34.8301 53.3334,52.1635 53.5,69.5C 53.5,75.1667 53.5,80.8333 53.5,86.5C 47.8333,86.5 42.1667,86.5 36.5,86.5C 36.5,80.5 36.5,74.5 36.5,68.5C 36.5,45.8333 36.5,23.1667 36.5,0.5C 47.5,0.5 58.5,0.5 69.5,0.5C 73.6869,16.564 78.1869,32.564 83,48.5C 88.3738,32.7124 93.5404,16.8791 98.5,1C 109.495,0.500153 120.495,0.333486 131.5,0.5C 131.5,8.83333 131.5,17.1667 131.5,25.5 Z M 55.5,23.5 C 59.6304,38.5581 63.9638,53.5581 68.5,68.5C 63.8333,68.5 59.1667,68.5 54.5,68.5C 54.1706,53.324 54.5039,38.324 55.5,23.5 Z"/></g>
<g><path style="opacity:0.941" fill="#000000" d="M 179.5,68.5 C 184.401,69.2339 189.401,69.2339 194.5,68.5C 195.49,74.31 195.823,80.31 195.5,86.5C 174.167,86.5 152.833,86.5 131.5,86.5C 131.5,80.5 131.5,74.5 131.5,68.5C 146.342,59.6463 159.842,48.9797 172,36.5C 177.833,23.3044 173.667,17.1377 159.5,18C 153.607,20.9371 150.607,25.7705 150.5,32.5C 144.102,31.887 137.769,30.887 131.5,29.5C 131.5,28.1667 131.5,26.8333 131.5,25.5C 138.16,5.32093 152.16,-2.84573 173.5,1C 194.738,7.98306 200.905,21.8164 192,42.5C 182.953,52.7764 172.453,61.2764 160.5,68C 166.825,68.4995 173.158,68.6662 179.5,68.5 Z"/></g>
<g><path style="opacity:0.305" fill="#00a72f" d="M 55.5,23.5 C 54.5039,38.324 54.1706,53.324 54.5,68.5C 54.5,69.1667 54.1667,69.5 53.5,69.5C 53.3334,52.1635 53.5001,34.8301 54,17.5C 55.128,19.3453 55.628,21.3453 55.5,23.5 Z"/></g>
<g><path style="opacity:0.18" fill="#00a12d" d="M 110.5,86.5 C 110.167,86.5 109.833,86.5 109.5,86.5C 109.831,65.3267 109.497,44.3267 108.5,23.5C 108.372,21.3453 108.872,19.3453 110,17.5C 110.5,40.4976 110.667,63.4976 110.5,86.5 Z"/></g>
<g><path style="opacity:0.896" fill="#00f745" d="M 194.5,68.5 C 189.401,69.2339 184.401,69.2339 179.5,68.5C 181.779,64.2144 183.279,59.5477 184,54.5C 186.841,52.4963 190.007,51.9963 193.5,53C 195.738,58.028 196.072,63.1947 194.5,68.5 Z M 188.5,56.5 C 189.765,57.5145 190.431,59.0145 190.5,61C 190.167,62.5 189.833,64 189.5,65.5C 188.516,62.5719 188.183,59.5719 188.5,56.5 Z"/></g>
<g><path style="opacity:0.927" fill="#010400" d="M 54.5,68.5 C 59.1667,68.5 63.8333,68.5 68.5,68.5C 69.2341,69.7079 69.5674,71.0413 69.5,72.5C 69.5,77.1667 69.5,81.8333 69.5,86.5C 64.1667,86.5 58.8333,86.5 53.5,86.5C 53.5,80.8333 53.5,75.1667 53.5,69.5C 54.1667,69.5 54.5,69.1667 54.5,68.5 Z"/></g>
</svg>
